# xmcd
#
# Track frame offsets:
#	150
#	13730
#	25184
#	38993
#	51203
#	63053
#	74025
#	85832
#	96318
#	105940
#	116843
#	129275
#	139393
#	150798
#	164532
#	178229
#	189522
#	201064
#	210571
#	222313
#
# Disc length: 3132
#
# Revision: 5
# Processed by: cddbd v1.5.1PL0 Copyright (c) Steve Scherf et al.
# Submitted via: Axialis_AX_CDPlayer 2.6
# Normalized: r4:DSETVAR1
#
DISCID=1c0c3a14
DTITLE=Various Artist - Big Rig Hits Vol. 1
DYEAR=1900
DGENRE=
TTITLE0=Truck Driver's Blues - Cliff Bruner and His Boys
TTITLE1=Truck Driver's Coffee Shop - Dick Reinhart and His Love Star Boys
TTITLE2=Truck Driver's Sweetheart - Karl and Harty
TTITLE3=I'm a Truck Driving Man - Art Gibson
TTITLE4=Truck Driver's Boogie - Milo Twins
TTITLE5=Truck Driver's Night Run Blues - Joe "Cannonball" Lewis
TTITLE6=Diesel Smoke (Dangerous Curves) - Doye O'Dell
TTITLE7=Truck Driving Man - Terry Fell and the Fellers
TTITLE8=I'm Coming Home - Johnny Horton
TTITLE9=Six Days On the Road - Dave Dudley
TTITLE10=Girl on the Billboard - Del Reeves
TTITLE11=Little Pink Mack - Kay Adams
TTITLE12=Highway Man - Curtis Leach
TTITLE13=A Tombstone Every Mile - Dick Curless
TTITLE14=Widow Maker - Jimmy Martin
TTITLE15=Diesel on My Tail - Jim and Jesse and the Virginia Boys
TTITLE16=Truck Driving Cat with Nine Wives - Jim Nesbitt
TTITLE17=Gear Bustin' Sort of a Feller - Bobby Braddock
TTITLE18=Big Rig Rollin' Man - Johnny $ Dollar
TTITLE19=Roll, Truck, Roll - Red Simpson
EXTD=
EXTT0=
EXTT1=
EXTT2=
EXTT3=
EXTT4=
EXTT5=
EXTT6=
EXTT7=
EXTT8=
EXTT9=
EXTT10=
EXTT11=
EXTT12=
EXTT13=
EXTT14=
EXTT15=
EXTT16=
EXTT17=
EXTT18=
EXTT19=
PLAYORDER=
